<svg width="362" height="306" viewBox="0 0 362 306" fill="none" xmlns="http://www.w3.org/2000/svg">
<path d="M72 232L159 254M164 135L72 195M78 58L164 103" stroke="black" stroke-width="4"/>
<path d="M220 99L297 55" stroke="black" stroke-width="4"/>
<circle cx="49.5" cy="41.5" r="41.5" fill="#10A2A6"/>
<circle cx="193.5" cy="116.5" r="41.5" fill="#2F96C0"/>
<circle cx="320.5" cy="41.5" r="41.5" fill="#2F96C0"/>
<circle cx="41.5" cy="210.5" r="41.5" fill="#2C4E70"/>
<circle cx="193.5" cy="264.5" r="41.5" fill="#057DBC"/>
<path d="M44 48.5H43.9981C43.9981 46.9831 44.1237 47.6816 36.0247 31.4834C34.37 28.175 29.6319 28.1684 27.9744 31.4834C19.8069 47.8203 20.0019 47.0309 20.0019 48.5H20C20 52.6419 25.3728 56 32 56C38.6272 56 44 52.6419 44 48.5ZM32 33.5L38.75 47H25.25L32 33.5ZM79.9981 48.5C79.9981 46.9831 80.1237 47.6816 72.0247 31.4834C70.37 28.175 65.6319 28.1684 63.9744 31.4834C55.8069 47.8203 56.0019 47.0309 56.0019 48.5H56C56 52.6419 61.3728 56 68 56C74.6272 56 80 52.6419 80 48.5H79.9981ZM61.25 47L68 33.5L74.75 47H61.25ZM69.5 59H53V31.3672C55.2041 30.4025 56.8588 28.4159 57.3491 26H69.5C70.3288 26 71 25.3287 71 24.5V21.5C71 20.6712 70.3288 20 69.5 20H55.9663C54.5975 18.1888 52.4459 17 50 17C47.5541 17 45.4025 18.1888 44.0337 20H30.5C29.6713 20 29 20.6712 29 21.5V24.5C29 25.3287 29.6713 26 30.5 26H42.6509C43.1413 28.415 44.795 30.4025 47 31.3672V59H30.5C29.6713 59 29 59.6712 29 60.5V63.5C29 64.3288 29.6713 65 30.5 65H69.5C70.3288 65 71 64.3288 71 63.5V60.5C71 59.6712 70.3288 59 69.5 59Z" fill="white"/>
<path d="M221.844 121.26L208.188 101.75C205.865 98.4375 202.167 96.6667 198.417 96.6667C196.062 96.6667 193.677 97.3646 191.594 98.8229C189.542 100.26 188.083 102.24 187.271 104.427C186.969 98.25 181.917 93.3333 175.667 93.3333C169.219 93.3333 164 98.5521 164 105V128.333C164 134.781 169.219 140 175.667 140C182.115 140 187.333 134.781 187.333 128.333V112.802C187.677 113.698 188.094 114.583 188.667 115.406L202.333 134.917C204.646 138.229 208.344 140 212.104 140C214.469 140 216.844 139.302 218.927 137.844C224.312 134.073 225.615 126.646 221.844 121.26ZM180.667 116.667H170.667V105C170.667 102.24 172.906 100 175.667 100C178.427 100 180.667 102.24 180.667 105V116.667ZM200.958 121.344L194.125 111.583C193.323 110.438 193.01 109.042 193.26 107.667C193.5 106.292 194.271 105.083 195.417 104.281C196.302 103.656 197.344 103.333 198.417 103.333C200.135 103.333 201.74 104.167 202.719 105.573L209.552 115.333L200.958 121.344Z" fill="white"/>
<g clip-path="url(#clip0_14_38)">
<path d="M71.5115 204.202L69.1542 201.845C68.5031 201.194 67.4479 201.194 66.7969 201.845L65.6188 203.023L62.6084 200.012C63.1948 197.793 62.6459 195.335 60.9052 193.595L56.1917 188.881C49.6833 182.373 39.1302 182.373 32.6209 188.881L42.049 193.595V195.548C42.049 197.316 42.7511 199.011 44.0021 200.261L49.1208 205.38C50.8615 207.121 53.3188 207.67 55.5386 207.083L58.549 210.094L57.3709 211.272C56.7198 211.923 56.7198 212.978 57.3709 213.629L59.7281 215.986C60.3792 216.638 61.4344 216.638 62.0854 215.986L71.5136 206.558C72.1625 205.908 72.1625 204.853 71.5115 204.202ZM41.6448 202.619C41.2594 202.233 40.9323 201.807 40.6188 201.374L14.0459 226.183C11.3823 228.671 11.3104 232.87 13.8865 235.447C16.4625 238.024 20.6625 237.952 23.15 235.287L47.9552 208.718C47.5427 208.415 47.1323 208.106 46.7636 207.737L41.6448 202.619Z" fill="white"/>
</g>
<g clip-path="url(#clip1_14_38)">
<path d="M316.615 51.3646L316.594 51.3437L313.177 48.3333L316.594 45.3229C316.969 44.9896 317.01 44.4062 316.677 44.0312L316.656 44.0104L314.844 42.0729C314.49 41.6979 313.906 41.6875 313.552 42.0312L307.542 47.6667C307.156 48.0312 307.156 48.6458 307.542 49L313.552 54.6354C313.719 54.7917 313.948 54.8854 314.177 54.8854C314.427 54.8854 314.677 54.7812 314.844 54.5937L316.656 52.6562C317 52.2917 316.979 51.7083 316.615 51.3646ZM339.531 25.1979L330.792 16.4583C329.854 15.5208 328.583 14.9896 327.26 14.9896H306C303.24 15 301 17.2396 301 20V63.3333C301 66.0937 303.24 68.3333 306 68.3333H336C338.76 68.3333 341 66.0937 341 63.3333V28.7396C341 27.4167 340.469 26.1354 339.531 25.1979ZM327.667 20.4062L335.594 28.3333H327.667V20.4062ZM336 63.3333H306V20H322.667V30.8333C322.667 32.2187 323.781 33.3333 325.167 33.3333H336V63.3333ZM322.833 37.2917C322.344 37.1458 321.844 37.4271 321.698 37.9167L316 57.5104C315.854 58 316.135 58.5104 316.625 58.6458L319.167 59.3854C319.656 59.5312 320.167 59.2396 320.302 58.7604L326 39.1562C326.146 38.6667 325.865 38.1562 325.375 38.0208L322.833 37.2917ZM325.385 45.3021L325.406 45.3229L328.823 48.3333L325.406 51.3437C325.031 51.6771 324.99 52.2604 325.323 52.6354L325.344 52.6562L327.156 54.5937C327.5 54.9583 328.083 54.9791 328.448 54.6354L334.458 49C334.844 48.6354 334.844 48.0208 334.458 47.6667L328.448 42.0312C328.083 41.6875 327.5 41.6979 327.156 42.0729L325.344 44.0104C325 44.375 325.021 44.9583 325.385 45.3021Z" fill="white"/>
</g>
<g clip-path="url(#clip2_14_38)">
<path d="M212.009 257.906L211.241 259.247C210.959 259.744 210.359 259.95 209.825 259.753C208.719 259.341 207.706 258.75 206.816 258.009C206.384 257.653 206.272 257.025 206.553 256.538L207.322 255.197C206.675 254.447 206.169 253.575 205.831 252.628H204.284C203.722 252.628 203.234 252.225 203.141 251.663C202.953 250.538 202.944 249.356 203.141 248.184C203.234 247.622 203.722 247.209 204.284 247.209H205.831C206.169 246.263 206.675 245.391 207.322 244.641L206.553 243.3C206.272 242.813 206.375 242.184 206.816 241.828C207.706 241.088 208.728 240.497 209.825 240.084C210.359 239.888 210.959 240.094 211.241 240.591L212.009 241.931C212.994 241.753 213.997 241.753 214.981 241.931L215.75 240.591C216.031 240.094 216.631 239.888 217.166 240.084C218.272 240.497 219.284 241.088 220.175 241.828C220.606 242.184 220.719 242.813 220.438 243.3L219.669 244.641C220.316 245.391 220.822 246.263 221.159 247.209H222.706C223.269 247.209 223.756 247.613 223.85 248.175C224.038 249.3 224.047 250.481 223.85 251.653C223.756 252.216 223.269 252.628 222.706 252.628H221.159C220.822 253.575 220.316 254.447 219.669 255.197L220.438 256.538C220.719 257.025 220.616 257.653 220.175 258.009C219.284 258.75 218.263 259.341 217.166 259.753C216.631 259.95 216.031 259.744 215.75 259.247L214.981 257.906C214.006 258.084 212.994 258.084 212.009 257.906ZM211.025 252.394C214.634 255.169 218.75 251.053 215.975 247.444C212.366 244.659 208.25 248.784 211.025 252.394ZM200.216 266.822L203.375 268.397C204.322 268.941 204.734 270.094 204.359 271.125C203.525 273.394 201.884 275.475 200.366 277.294C199.672 278.128 198.472 278.334 197.525 277.791L194.797 276.216C193.297 277.5 191.553 278.522 189.65 279.188V282.338C189.65 283.425 188.872 284.363 187.803 284.55C185.497 284.944 183.078 284.963 180.688 284.55C179.609 284.363 178.813 283.434 178.813 282.338V279.188C176.909 278.513 175.166 277.5 173.666 276.216L170.938 277.781C170 278.325 168.791 278.119 168.097 277.284C166.578 275.466 164.975 273.384 164.141 271.125C163.766 270.103 164.178 268.95 165.125 268.397L168.247 266.822C167.881 264.863 167.881 262.847 168.247 260.878L165.125 259.294C164.178 258.75 163.756 257.597 164.141 256.575C164.975 254.306 166.578 252.225 168.097 250.406C168.791 249.572 169.991 249.366 170.938 249.909L173.666 251.484C175.166 250.2 176.909 249.178 178.813 248.513V245.353C178.813 244.275 179.581 243.338 180.65 243.15C182.956 242.756 185.384 242.738 187.775 243.141C188.853 243.328 189.65 244.256 189.65 245.353V248.503C191.553 249.178 193.297 250.191 194.797 251.475L197.525 249.9C198.463 249.356 199.672 249.563 200.366 250.397C201.884 252.216 203.478 254.297 204.313 256.566C204.688 257.588 204.322 258.741 203.375 259.294L200.216 260.869C200.581 262.838 200.581 264.853 200.216 266.822ZM189.191 268.8C194.741 261.581 186.5 253.341 179.281 258.891C173.731 266.109 181.972 274.35 189.191 268.8ZM212.009 285.928L211.241 287.269C210.959 287.766 210.359 287.972 209.825 287.775C208.719 287.363 207.706 286.772 206.816 286.031C206.384 285.675 206.272 285.047 206.553 284.559L207.322 283.219C206.675 282.469 206.169 281.597 205.831 280.65H204.284C203.722 280.65 203.234 280.247 203.141 279.684C202.953 278.559 202.944 277.378 203.141 276.206C203.234 275.644 203.722 275.231 204.284 275.231H205.831C206.169 274.284 206.675 273.413 207.322 272.663L206.553 271.322C206.272 270.834 206.375 270.206 206.816 269.85C207.706 269.109 208.728 268.519 209.825 268.106C210.359 267.909 210.959 268.116 211.241 268.613L212.009 269.953C212.994 269.775 213.997 269.775 214.981 269.953L215.75 268.613C216.031 268.116 216.631 267.909 217.166 268.106C218.272 268.519 219.284 269.109 220.175 269.85C220.606 270.206 220.719 270.834 220.438 271.322L219.669 272.663C220.316 273.413 220.822 274.284 221.159 275.231H222.706C223.269 275.231 223.756 275.634 223.85 276.197C224.038 277.322 224.047 278.503 223.85 279.675C223.756 280.238 223.269 280.65 222.706 280.65H221.159C220.822 281.597 220.316 282.469 219.669 283.219L220.438 284.559C220.719 285.047 220.616 285.675 220.175 286.031C219.284 286.772 218.263 287.363 217.166 287.775C216.631 287.972 216.031 287.766 215.75 287.269L214.981 285.928C214.006 286.106 212.994 286.106 212.009 285.928ZM211.025 280.406C214.634 283.181 218.75 279.066 215.975 275.456C212.366 272.681 208.25 276.797 211.025 280.406Z" fill="white"/>
</g>
<defs>
<clipPath id="clip0_14_38">
<rect width="60" height="53.3333" fill="white" transform="translate(12 184)"/>
</clipPath>
<clipPath id="clip1_14_38">
<rect width="40" height="53.3333" fill="white" transform="translate(301 15)"/>
</clipPath>
<clipPath id="clip2_14_38">
<rect width="60" height="48" fill="white" transform="translate(164 240)"/>
</clipPath>
</defs>
</svg>
