<svg width="550" height="263" viewBox="0 0 550 263" fill="none" xmlns="http://www.w3.org/2000/svg">
<rect y="175" width="146.92" height="80.0608" fill="#111111"/>
<rect x="6" y="178" width="135.848" height="74.0989" fill="#FAF9F9"/>
<line x1="37.0493" y1="260.8" x2="109.871" y2="260.8" stroke="black" stroke-width="3"/>
<path d="M121.047 188.572C126.916 184.17 130.584 184.17 135.903 188.572" stroke="black" stroke-linecap="round"/>
<path d="M123.064 190.177C127.412 186.753 130.129 186.753 134.068 190.177" stroke="black" stroke-linecap="round"/>
<path d="M124.531 192.011C127.72 189.565 129.712 189.565 132.601 192.011" stroke="black" stroke-linecap="round"/>
<circle cx="128.75" cy="195.495" r="2.01745" fill="#1B1B1B"/>
<path d="M63.9663 218.26L65.2407 213.602H66.9634L64.8101 220H63.1226L60.9868 213.602H62.6963L63.9663 218.26ZM71.4019 217.289H68.9761V218.813H71.8413V220H67.4336V213.602H71.8501V214.792H68.9761V216.142H71.4019V217.289Z" fill="#228BEB"/>
<path d="M77.4927 214.792H75.5723V220H74.0298V214.792H72.1445V213.602H77.4927V214.792ZM80.7007 218.26L81.9751 213.602H83.6978L81.5444 220H79.8569L77.7212 213.602H79.4307L80.7007 218.26Z" fill="black"/>
<rect x="253" y="252" width="66.0638" height="36" transform="rotate(-90 253 252)" fill="#111111"/>
<rect x="254" y="247.936" width="58.7856" height="33.5918" transform="rotate(-90 254 247.936)" fill="#FAF9F9"/>
<path d="M279.336 192.209C281.975 190.23 283.624 190.23 286.016 192.209" stroke="black" stroke-linecap="round"/>
<path d="M280.243 192.931C282.198 191.391 283.42 191.391 285.191 192.931" stroke="black" stroke-linecap="round"/>
<path d="M280.903 193.755C282.336 192.656 283.232 192.656 284.531 193.755" stroke="black" stroke-linecap="round"/>
<circle cx="282.799" cy="195.322" r="0.907161" fill="#1B1B1B"/>
<path d="M265.966 214.196L267.241 209.538H268.963L266.81 215.936H265.123L262.987 209.538H264.696L265.966 214.196ZM274.549 213.77C274.528 214.215 274.408 214.609 274.188 214.952C273.969 215.292 273.66 215.555 273.261 215.743C272.866 215.93 272.413 216.024 271.903 216.024C271.062 216.024 270.4 215.75 269.917 215.202C269.434 214.655 269.192 213.881 269.192 212.882V212.566C269.192 211.939 269.3 211.391 269.517 210.922C269.737 210.45 270.052 210.087 270.462 209.832C270.872 209.574 271.347 209.446 271.886 209.446C272.662 209.446 273.286 209.651 273.758 210.061C274.229 210.468 274.498 211.031 274.562 211.748H273.024C273.012 211.359 272.914 211.079 272.729 210.909C272.545 210.739 272.264 210.654 271.886 210.654C271.502 210.654 271.221 210.798 271.042 211.085C270.863 211.372 270.77 211.83 270.761 212.46V212.913C270.761 213.595 270.846 214.083 271.016 214.376C271.188 214.669 271.484 214.816 271.903 214.816C272.258 214.816 272.529 214.732 272.716 214.565C272.904 214.398 273.003 214.133 273.015 213.77H274.549Z" fill="#228BEB"/>
<path d="M268.506 221.729H266.586V226.936H265.043V221.729H263.158V220.538H268.506V221.729ZM271.714 225.196L272.989 220.538H274.711L272.558 226.936H270.871L268.735 220.538H270.444L271.714 225.196Z" fill="black"/>
<rect x="549.394" y="251" width="119.394" height="65.0608" transform="rotate(-180 549.394 251)" fill="#111111"/>
<rect x="544" y="244" width="110.217" height="53.208" transform="rotate(-180 544 244)" fill="#FAF9F9"/>
<path d="M530.644 197.561C534.288 194.828 536.565 194.828 539.868 197.561" stroke="black" stroke-linecap="round"/>
<path d="M531.896 198.558C534.596 196.432 536.283 196.432 538.729 198.558" stroke="black" stroke-linecap="round"/>
<path d="M532.807 199.697C534.787 198.178 536.024 198.178 537.818 199.697" stroke="black" stroke-linecap="round"/>
<circle cx="535.426" cy="201.86" r="1.25262" fill="#1B1B1B"/>
<path d="M478.966 220.26L480.241 215.602H481.963L479.81 222H478.123L475.987 215.602H477.696L478.966 220.26ZM487.549 219.833C487.528 220.279 487.408 220.673 487.188 221.016C486.969 221.355 486.66 221.619 486.261 221.807C485.866 221.994 485.413 222.088 484.903 222.088C484.062 222.088 483.4 221.814 482.917 221.266C482.434 220.718 482.192 219.945 482.192 218.946V218.629C482.192 218.002 482.3 217.455 482.517 216.986C482.737 216.514 483.052 216.151 483.462 215.896C483.872 215.638 484.347 215.509 484.886 215.509C485.662 215.509 486.286 215.714 486.758 216.125C487.229 216.532 487.498 217.094 487.562 217.812H486.024C486.012 217.422 485.914 217.143 485.729 216.973C485.545 216.803 485.264 216.718 484.886 216.718C484.502 216.718 484.221 216.861 484.042 217.148C483.863 217.436 483.77 217.894 483.761 218.524V218.977C483.761 219.659 483.846 220.147 484.016 220.44C484.188 220.733 484.484 220.879 484.903 220.879C485.258 220.879 485.529 220.796 485.716 220.629C485.904 220.462 486.003 220.197 486.015 219.833H487.549Z" fill="#228BEB"/>
<path d="M493.301 216.792H491.381V222H489.838V216.792H487.953V215.602H493.301V216.792ZM496.509 220.26L497.784 215.602H499.506L497.353 222H495.666L493.53 215.602H495.239L496.509 220.26Z" fill="black"/>
<circle cx="489.5" cy="247.5" r="1.5" fill="white"/>
<rect x="237" y="2" width="67.711" height="73.9468" fill="white" stroke="black" stroke-width="4"/>
<path d="M295.799 73.27C295.799 66.6547 293.171 60.3103 288.493 55.6326C283.815 50.9549 277.471 48.327 270.856 48.327C264.24 48.327 257.896 50.9549 253.218 55.6326C248.541 60.3103 245.913 66.6547 245.913 73.27L270.856 73.27H295.799Z" fill="#228BEB"/>
<circle cx="270.856" cy="24.943" r="16.1483" fill="white" stroke="black" stroke-width="2"/>
<path d="M229 41H73V150M273 86V150M315 41H490V150" stroke="black" stroke-width="4"/>
</svg>
