<svg width="401" height="238" viewBox="0 0 401 238" fill="none" xmlns="http://www.w3.org/2000/svg">
<rect width="400.537" height="218.263" fill="#111111"/>
<rect x="15" y="8.12695" width="370.351" height="202.01" fill="#FAF9F9"/>
<line x1="101.005" y1="233" x2="299.532" y2="233" stroke="black" stroke-width="10"/>
<path d="M330 37C346 25 356 25 370.5 37" stroke="black" stroke-width="3" stroke-linecap="round"/>
<path d="M335.5 41.375C347.352 32.0417 354.759 32.0417 365.5 41.375" stroke="black" stroke-width="3" stroke-linecap="round"/>
<path d="M339.5 46.375C348.191 39.7083 353.623 39.7083 361.5 46.375" stroke="black" stroke-width="3" stroke-linecap="round"/>
<circle cx="351" cy="55.875" r="5.5" fill="#1B1B1B"/>
<path d="M158.865 110.79L163.963 92.1575H170.854L162.24 117.751H155.49L146.947 92.1575H153.785L158.865 110.79ZM193.195 109.085C193.113 110.866 192.633 112.443 191.754 113.814C190.875 115.173 189.639 116.228 188.045 116.978C186.463 117.728 184.652 118.103 182.613 118.103C179.25 118.103 176.602 117.007 174.668 114.816C172.734 112.624 171.768 109.531 171.768 105.534V104.269C171.768 101.761 172.201 99.5696 173.068 97.6946C173.947 95.8079 175.207 94.3547 176.848 93.3352C178.488 92.304 180.387 91.7883 182.543 91.7883C185.648 91.7883 188.145 92.6086 190.031 94.2493C191.918 95.8782 192.99 98.1282 193.248 100.999H187.096C187.049 99.4407 186.656 98.3215 185.918 97.6418C185.18 96.9622 184.055 96.6223 182.543 96.6223C181.008 96.6223 179.883 97.1965 179.168 98.345C178.453 99.4934 178.078 101.327 178.043 103.847V105.657C178.043 108.388 178.383 110.339 179.062 111.511C179.754 112.683 180.938 113.269 182.613 113.269C184.031 113.269 185.115 112.935 185.865 112.267C186.615 111.599 187.014 110.538 187.061 109.085H193.195Z" fill="#228BEB"/>
<path d="M216.205 96.9211H208.523V117.751H202.354V96.9211H194.812V92.1575H216.205V96.9211ZM229.037 110.79L234.135 92.1575H241.025L232.412 117.751H225.662L217.119 92.1575H223.957L229.037 110.79Z" fill="black"/>
</svg>
