<svg width="131" height="76" viewBox="0 0 131 76" fill="none" xmlns="http://www.w3.org/2000/svg">
<path d="M12.8652 26.0391L17.9629 7.40625H24.8535L16.2402 33H9.49023L0.947266 7.40625H7.78516L12.8652 26.0391ZM18.8066 64.1543H9.10352V70.2539H20.5645V75H2.93359V49.4062H20.5996V54.1699H9.10352V59.5664H18.8066V64.1543Z" fill="#10A2A6"/>
<path d="M48.4082 20.7305C48.4082 23.2266 47.9453 25.4355 47.0195 27.3574C46.0938 29.2793 44.7754 30.7617 43.0645 31.8047C41.3652 32.8359 39.4258 33.3516 37.2461 33.3516C35.0664 33.3516 33.1328 32.8535 31.4453 31.8574C29.7578 30.8496 28.4395 29.4141 27.4902 27.5508C26.5527 25.6875 26.0605 23.5488 26.0137 21.1348V19.6934C26.0137 17.1855 26.4707 14.9766 27.3848 13.0664C28.3105 11.1445 29.6289 9.66211 31.3398 8.61914C33.0625 7.57617 35.0195 7.05469 37.2109 7.05469C39.3789 7.05469 41.3125 7.57031 43.0117 8.60156C44.7109 9.63281 46.0293 11.1035 46.9668 13.0137C47.916 14.9121 48.3965 17.0918 48.4082 19.5527V20.7305ZM42.1328 19.6582C42.1328 17.1152 41.7051 15.1875 40.8496 13.875C40.0059 12.5508 38.793 11.8887 37.2109 11.8887C34.1172 11.8887 32.4824 14.209 32.3066 18.8496L32.2891 20.7305C32.2891 23.2383 32.7051 25.166 33.5371 26.5137C34.3691 27.8613 35.6055 28.5352 37.2461 28.5352C38.8047 28.5352 40.0059 27.873 40.8496 26.5488C41.6934 25.2246 42.1211 23.3203 42.1328 20.8359V19.6582ZM72.2969 24.334C72.2148 26.1152 71.7344 27.6914 70.8555 29.0625C69.9766 30.4219 68.7402 31.4766 67.1465 32.2266C65.5645 32.9766 63.7539 33.3516 61.7148 33.3516C58.3516 33.3516 55.7031 32.2559 53.7695 30.0645C51.8359 27.873 50.8691 24.7793 50.8691 20.7832V19.5176C50.8691 17.0098 51.3027 14.8184 52.1699 12.9434C53.0488 11.0566 54.3086 9.60352 55.9492 8.58398C57.5898 7.55273 59.4883 7.03711 61.6445 7.03711C64.75 7.03711 67.2461 7.85742 69.1328 9.49805C71.0195 11.127 72.0918 13.377 72.3496 16.248H66.1973C66.1504 14.6895 65.7578 13.5703 65.0195 12.8906C64.2812 12.2109 63.1562 11.8711 61.6445 11.8711C60.1094 11.8711 58.9844 12.4453 58.2695 13.5938C57.5547 14.7422 57.1797 16.5762 57.1445 19.0957V20.9062C57.1445 23.6367 57.4844 25.5879 58.1641 26.7598C58.8555 27.9316 60.0391 28.5176 61.7148 28.5176C63.1328 28.5176 64.2168 28.1836 64.9668 27.5156C65.7168 26.8477 66.1152 25.7871 66.1621 24.334H72.2969ZM91.0879 22.1543H81.3848V28.2539H92.8457V33H75.2148V7.40625H92.8809V12.1699H81.3848V17.5664H91.0879V22.1543ZM92.0547 5.49023V5.71875H87.3789L84.584 3.32812L81.7891 5.71875H77.2188V5.41992L82.8965 0.550781H86.2891L92.0547 5.49023ZM44.4531 75H38.3184L29.248 59.0742V75H23.0781V49.4062H29.248L38.3008 65.332V49.4062H44.4531V75ZM61.5566 68.1973C61.5566 67.2949 61.2344 66.5918 60.5898 66.0879C59.957 65.584 58.8379 65.0625 57.2324 64.5234C55.627 63.9844 54.3145 63.4629 53.2949 62.959C49.9785 61.3301 48.3203 59.0918 48.3203 56.2441C48.3203 54.8262 48.7305 53.5781 49.5508 52.5C50.3828 51.4102 51.5547 50.5664 53.0664 49.9688C54.5781 49.3594 56.2773 49.0547 58.1641 49.0547C60.0039 49.0547 61.6504 49.3828 63.1035 50.0391C64.5684 50.6953 65.7051 51.6328 66.5137 52.8516C67.3223 54.0586 67.7266 55.4414 67.7266 57H61.5742C61.5742 55.957 61.252 55.1484 60.6074 54.5742C59.9746 54 59.1133 53.7129 58.0234 53.7129C56.9219 53.7129 56.0488 53.959 55.4043 54.4512C54.7715 54.9316 54.4551 55.5469 54.4551 56.2969C54.4551 56.9531 54.8066 57.5508 55.5098 58.0898C56.2129 58.6172 57.4492 59.168 59.2188 59.7422C60.9883 60.3047 62.4414 60.9141 63.5781 61.5703C66.3438 63.1641 67.7266 65.3613 67.7266 68.1621C67.7266 70.4004 66.8828 72.1582 65.1953 73.4355C63.5078 74.7129 61.1934 75.3516 58.252 75.3516C56.1777 75.3516 54.2969 74.9824 52.6094 74.2441C50.9336 73.4941 49.668 72.4746 48.8125 71.1855C47.9688 69.8848 47.5469 68.3906 47.5469 66.7031H53.7344C53.7344 68.0742 54.0859 69.0879 54.7891 69.7441C55.5039 70.3887 56.6582 70.7109 58.252 70.7109C59.2715 70.7109 60.0742 70.4941 60.6602 70.0605C61.2578 69.6152 61.5566 68.9941 61.5566 68.1973ZM77.4648 75H71.3125V49.4062H77.4648V75ZM103.129 75H96.9941L87.9238 59.0742V75H81.7539V49.4062H87.9238L96.9766 65.332V49.4062H103.129V75ZM121.885 70.2188H113.43L111.953 75H105.361L114.748 49.4062H120.549L130.006 75H123.379L121.885 70.2188ZM114.906 65.4551H120.408L117.648 56.5781L114.906 65.4551Z" fill="black"/>
</svg>
