<svg width="231" height="134" viewBox="0 0 231 134" fill="none" xmlns="http://www.w3.org/2000/svg">
<path d="M22.0938 45.625L31.1562 12.5H43.4062L28.0938 58H16.0938L0.90625 12.5H13.0625L22.0938 45.625Z" fill="#228BEB"/>
<path d="M85.2812 36.1875C85.2812 40.625 84.4583 44.5521 82.8125 47.9688C81.1667 51.3854 78.8229 54.0208 75.7812 55.875C72.7604 57.7083 69.3125 58.625 65.4375 58.625C61.5625 58.625 58.125 57.7396 55.125 55.9688C52.125 54.1771 49.7812 51.625 48.0938 48.3125C46.4271 45 45.5521 41.1979 45.4688 36.9062V34.3438C45.4688 29.8854 46.2812 25.9583 47.9062 22.5625C49.5521 19.1458 51.8958 16.5104 54.9375 14.6562C58 12.8021 61.4792 11.875 65.375 11.875C69.2292 11.875 72.6667 12.7917 75.6875 14.625C78.7083 16.4583 81.0521 19.0729 82.7188 22.4688C84.4062 25.8438 85.2604 29.7188 85.2812 34.0938V36.1875ZM74.125 34.2812C74.125 29.7604 73.3646 26.3333 71.8438 24C70.3438 21.6458 68.1875 20.4688 65.375 20.4688C59.875 20.4688 56.9688 24.5938 56.6562 32.8438L56.625 36.1875C56.625 40.6458 57.3646 44.0729 58.8438 46.4688C60.3229 48.8646 62.5208 50.0625 65.4375 50.0625C68.2083 50.0625 70.3438 48.8854 71.8438 46.5312C73.3438 44.1771 74.1042 40.7917 74.125 36.375V34.2812ZM127.75 42.5938C127.604 45.7604 126.75 48.5625 125.188 51C123.625 53.4167 121.427 55.2917 118.594 56.625C115.781 57.9583 112.562 58.625 108.938 58.625C102.958 58.625 98.25 56.6771 94.8125 52.7812C91.375 48.8854 89.6562 43.3854 89.6562 36.2812V34.0312C89.6562 29.5729 90.4271 25.6771 91.9688 22.3438C93.5312 18.9896 95.7708 16.4062 98.6875 14.5938C101.604 12.7604 104.979 11.8438 108.812 11.8438C114.333 11.8438 118.771 13.3021 122.125 16.2188C125.479 19.1146 127.385 23.1146 127.844 28.2188H116.906C116.823 25.4479 116.125 23.4583 114.812 22.25C113.5 21.0417 111.5 20.4375 108.812 20.4375C106.083 20.4375 104.083 21.4583 102.812 23.5C101.542 25.5417 100.875 28.8021 100.812 33.2812V36.5C100.812 41.3542 101.417 44.8229 102.625 46.9062C103.854 48.9896 105.958 50.0312 108.938 50.0312C111.458 50.0312 113.385 49.4375 114.719 48.25C116.052 47.0625 116.76 45.1771 116.844 42.5938H127.75ZM161.156 38.7188H143.906V49.5625H164.281V58H132.938V12.5H164.344V20.9688H143.906V30.5625H161.156V38.7188ZM162.875 9.09375V9.5H154.562L149.594 5.25L144.625 9.5H136.5V8.96875L146.594 0.3125H152.625L162.875 9.09375ZM78.25 133H67.3438L51.2188 104.688V133H40.25V87.5H51.2188L67.3125 115.812V87.5H78.25V133ZM108.656 120.906C108.656 119.302 108.083 118.052 106.938 117.156C105.812 116.26 103.823 115.333 100.969 114.375C98.1146 113.417 95.7812 112.49 93.9688 111.594C88.0729 108.698 85.125 104.719 85.125 99.6562C85.125 97.1354 85.8542 94.9167 87.3125 93C88.7917 91.0625 90.875 89.5625 93.5625 88.5C96.25 87.4167 99.2708 86.875 102.625 86.875C105.896 86.875 108.823 87.4583 111.406 88.625C114.01 89.7917 116.031 91.4583 117.469 93.625C118.906 95.7708 119.625 98.2292 119.625 101H108.688C108.688 99.1458 108.115 97.7083 106.969 96.6875C105.844 95.6667 104.312 95.1562 102.375 95.1562C100.417 95.1562 98.8646 95.5938 97.7188 96.4688C96.5938 97.3229 96.0312 98.4167 96.0312 99.75C96.0312 100.917 96.6562 101.979 97.9062 102.938C99.1562 103.875 101.354 104.854 104.5 105.875C107.646 106.875 110.229 107.958 112.25 109.125C117.167 111.958 119.625 115.865 119.625 120.844C119.625 124.823 118.125 127.948 115.125 130.219C112.125 132.49 108.01 133.625 102.781 133.625C99.0938 133.625 95.75 132.969 92.75 131.656C89.7708 130.323 87.5208 128.51 86 126.219C84.5 123.906 83.75 121.25 83.75 118.25H94.75C94.75 120.688 95.375 122.49 96.625 123.656C97.8958 124.802 99.9479 125.375 102.781 125.375C104.594 125.375 106.021 124.99 107.062 124.219C108.125 123.427 108.656 122.323 108.656 120.906ZM136.938 133H126V87.5H136.938V133ZM182.562 133H171.656L155.531 104.688V133H144.562V87.5H155.531L171.625 115.812V87.5H182.562V133ZM215.906 124.5H200.875L198.25 133H186.531L203.219 87.5H213.531L230.344 133H218.562L215.906 124.5ZM203.5 116.031H213.281L208.375 100.25L203.5 116.031Z" fill="white"/>
<path d="M32.6562 113.719H15.4062V124.562H35.7812V133H4.4375V87.5H35.8438V95.9688H15.4062V105.562H32.6562V113.719Z" fill="#228BEB"/>
</svg>
